<?xml version="1.0" encoding="utf-8"?>
<!-- Generator: Adobe Illustrator 17.0.0, SVG Export Plug-In . SVG Version: 6.00 Build 0)  -->
<!DOCTYPE svg PUBLIC "-//W3C//DTD SVG 1.1//EN" "http://www.w3.org/Graphics/SVG/1.1/DTD/svg11.dtd">
<svg version="1.1" id="Layer_1" xmlns="http://www.w3.org/2000/svg" xmlns:xlink="http://www.w3.org/1999/xlink" x="0px" y="0px"
	 width="595.28px" height="841.89px" viewBox="0 0 595.28 841.89" enable-background="new 0 0 595.28 841.89" xml:space="preserve">
<g>
	<path fill="none" stroke="#79C143" stroke-width="6" stroke-miterlimit="10" d="M308.1,510.85V270.181l-34.579,60.859v240.668
		L308.1,510.85z"/>
	<path fill="none" stroke="#79C143" stroke-width="6" stroke-miterlimit="10" d="M105.814,335.017h82.989
		c33.541,0,56.363,10.892,56.363,43.742c0,17.289-8.645,29.392-24.032,36.826c21.439,6.224,32.331,22.822,32.331,44.78
		c0,35.789-30.429,51.177-62.242,51.177h-85.41V335.017z M143.851,405.903h39.939c13.659,0,23.686-6.397,23.686-21.266
		c0-16.771-12.794-20.229-26.626-20.229h-36.999V405.903z M143.851,480.248h42.186c15.388,0,28.7-5.014,28.7-23.168
		c0-17.981-11.411-25.242-28.009-25.242h-42.878V480.248z"/>
	<path fill="none" stroke="#79C143" stroke-width="6" stroke-miterlimit="10" d="M337.492,335.017h95.092
		c31.64,0,51.695,21.958,51.695,48.583c0,20.747-8.472,36.308-28.009,44.261v0.519c19.018,5.014,24.551,23.514,25.761,41.322
		c0.692,11.065,0.519,31.812,7.434,41.667h-38.901c-4.668-11.065-4.149-28.009-6.224-42.186c-2.766-18.5-9.855-26.971-29.392-26.971
		h-39.42v69.158h-38.037V335.017z M375.529,414.375h43.223c17.289,0,26.626-7.089,26.626-24.897
		c0-17.116-9.336-25.242-26.626-25.242h-43.223V414.375z"/>
</g>
</svg>
