<?xml version="1.0" encoding="utf-8"?>
<!-- Generator: Adobe Illustrator 17.0.0, SVG Export Plug-In . SVG Version: 6.00 Build 0)  -->
<!DOCTYPE svg PUBLIC "-//W3C//DTD SVG 1.0//EN" "http://www.w3.org/TR/2001/REC-SVG-20010904/DTD/svg10.dtd">
<svg version="1.0" id="Layer_1" xmlns="http://www.w3.org/2000/svg" xmlns:xlink="http://www.w3.org/1999/xlink" x="0px" y="0px"
	 width="100px" height="100px" viewBox="0 0 100 100" enable-background="new 0 0 100 100" xml:space="preserve">
<path fill="none" stroke="#F9FF00" stroke-miterlimit="10" d="M65.925,44.237c-5.632,2.827-11.253,1.833-16.375,0.112
	c2.513-5.434,4.167-11.25,1.023-16.23C46.849,22.22,37.514,20.798,32,25.333c-2.144,1.793-4.101,4.798-4.7,7.531
	c-3.917-0.432-6.083-0.349-7.754,1.818c-2.246,3.333,4.63,8.492,12.247,9.727c-7.931,3.541-11.597,13.963-5.989,21.539
	c5.024,6.786,15.217,7.088,22.835,7.22c7.75,0.134,16.77-0.91,22.092-7.264c5.713-6.82,9.092-21.148,1.38-26.993
	C70.477,37.671,69.904,42.239,65.925,44.237z"/>
</svg>
