<?xml version="1.0" encoding="utf-8"?>
<!-- Generator: Adobe Illustrator 16.0.4, SVG Export Plug-In . SVG Version: 6.00 Build 0)  -->
<!DOCTYPE svg PUBLIC "-//W3C//DTD SVG 1.1//EN" "http://www.w3.org/Graphics/SVG/1.1/DTD/svg11.dtd">
<svg version="1.1" id="Layer_1" xmlns="http://www.w3.org/2000/svg" xmlns:xlink="http://www.w3.org/1999/xlink" x="0px" y="0px"
	 width="80.247px" height="63.978px" viewBox="0 0 80.247 63.978" enable-background="new 0 0 80.247 63.978" xml:space="preserve">
<line fill="none" stroke="#00FFAB" stroke-width="2" stroke-linecap="round" stroke-miterlimit="10" x1="59.107" y1="18.074" x2="79.247" y2="1"/>
<path fill="none" stroke="#FFBB00" stroke-width="3" stroke-miterlimit="10" d="M13.424,36.646
	c4.169-7.419,14.729-13.628,27.098-13.628c3.379,0,6.622,0.394,9.638,1.116"/>
<path fill="none" stroke="#FFBB00" stroke-width="3" stroke-miterlimit="10" d="M65.671,52.581
	c-5.008,5.915-14.395,9.897-25.149,9.897c-11.461,0-20.713-3.667-25.423-10.232"/>
<path fill="none" stroke="#FFBB00" stroke-width="3" stroke-miterlimit="10" d="M65.671,52.581"/>
<path fill="none" stroke="#FFBB00" stroke-width="3" stroke-miterlimit="10" d="M68.946,46.687"/>
<path fill="none" stroke="#FFBB00" stroke-width="3" stroke-miterlimit="10" d="M67.2,34.996c1.496,2.38,2.324,5.001,2.324,7.753
	c0,1.349-0.199,2.666-0.578,3.938"/>
<path fill="none" stroke="#FFBB00" stroke-width="3" stroke-miterlimit="10" d="M67.2,34.996"/>
<path fill="none" stroke="#FFBB00" stroke-width="3" stroke-miterlimit="10" d="M50.16,24.134"/>
<path fill="none" stroke="#FFFFFF" stroke-width="3" stroke-miterlimit="10" d="M59.107,18.074c4.465,0.411,8.392,4.025,9.353,9.034
	c1.144,5.967-2.353,11.65-7.81,12.697c-5.458,1.047-10.81-2.939-11.953-8.906c-1.145-5.966,2.352-11.65,7.809-12.698
	C57.38,18.033,58.253,17.995,59.107,18.074"/>
<path fill="none" stroke="#FFFFFF" stroke-width="3" stroke-miterlimit="10" d="M30.524,52.246
	c-9.353,2.066-34.999-2.779-27.75-11.169c2.802-3.243,26.431-8.637,33.568-3.072C41.961,42.383,38.253,50.538,30.524,52.246z"/>
<path fill="none" stroke="#FF00A9" stroke-width="3" stroke-linecap="round" stroke-miterlimit="10" d="M65.191,52.246
	c3.92,0,8.119,0,8.119,0"/>
<path fill="none" stroke="#FF00A9" stroke-width="3" stroke-linecap="round" stroke-miterlimit="10" d="M77.435,46.687
	c0,0-17.81,0-18.681,0s-3.625,0.123-3.625,2.779c0,2.282,2.562,2.779,3.625,2.779c0.771,0,3.527,0,6.437,0"/>
<line fill="none" stroke="#FFFFFF" stroke-width="4" stroke-linecap="round" stroke-miterlimit="10" x1="63.192" y1="20.13" x2="62.821" y2="27.181"/>
</svg>
