<?xml version="1.0" encoding="utf-8"?>
<!-- Generator: Adobe Illustrator 17.0.0, SVG Export Plug-In . SVG Version: 6.00 Build 0)  -->
<!DOCTYPE svg PUBLIC "-//W3C//DTD SVG 1.1//EN" "http://www.w3.org/Graphics/SVG/1.1/DTD/svg11.dtd">
<svg version="1.1"
	 id="svg3769" sodipodi:docname="New document 3" inkscape:version="0.48.3.1 r9886" xmlns:svg="http://www.w3.org/2000/svg" xmlns:rdf="http://www.w3.org/1999/02/22-rdf-syntax-ns#" xmlns:sodipodi="http://sodipodi.sourceforge.net/DTD/sodipodi-0.dtd" xmlns:inkscape="http://www.inkscape.org/namespaces/inkscape" xmlns:dc="http://purl.org/dc/elements/1.1/" xmlns:cc="http://creativecommons.org/ns#"
	 xmlns="http://www.w3.org/2000/svg" xmlns:xlink="http://www.w3.org/1999/xlink" x="0px" y="0px" width="222.639px"
	 height="218.787px" viewBox="0 0 222.639 218.787" enable-background="new 0 0 222.639 218.787" xml:space="preserve">
<sodipodi:namedview  inkscape:window-maximized="1" inkscape:window-y="0" inkscape:window-x="0" inkscape:window-height="965" inkscape:window-width="1280" inkscape:current-layer="layer1" inkscape:document-units="px" inkscape:pageopacity="0.0" fit-margin-bottom="4" fit-margin-right="4" inkscape:pageshadow="2" fit-margin-left="4" fit-margin-top="4" inkscape:zoom="1.4" borderopacity="1.0" inkscape:cx="60.605349" pagecolor="#ffffff" bordercolor="#666666" id="base" showgrid="false" inkscape:cy="-39.177766">
	</sodipodi:namedview>
<g id="layer1" transform="translate(-314.39464,-274.3971)" inkscape:groupmode="layer" inkscape:label="Layer 1">
	<path id="svg" inkscape:connector-curvature="0" fill="none" stroke="#00FFF2" stroke-miterlimit="10" d="M571.25,390.435
		c0-14.439-2.378-28.859-7.074-42.516c-2.07-6.019-4.583-11.885-7.51-17.536c-2.965-5.724,2.334-13.016,4.39-19.066
		c5.107-15.027,9.322-33.395,2.39-48.576c-8.663-18.973-31.961-22.73-50.629-21.743c-10.601,0.56-20.881,3.148-31.056,6.113
		c-13.601,3.963-27.287,12.558-41.277,12.558c-12.726,0-25.442,1.839-37.632,5.496c-44.512,13.353-79.451,50.641-89.831,95.945
		c19.45-21.82,42.001-45.658,69.396-57.5c-39.517,35.311-71.764,81.1-92.52,129.851c-9.8,23.017-20.444,72.338,7.268,88.215
		c19.658,11.262,46.908,2.374,66.267-5.258c4.119-1.624,8.189-3.376,12.201-5.247c6.595-3.076,6.5-3.394,14.097-0.191
		c28.071,11.836,60.081,13.423,89.196,4.48c39.136-12.021,71.097-42.663,84.801-81.236c-11.451,0-22.903,0-34.354,0
		c-7.752,0-31.442-4.173-36.037,2.665c-30.122,44.824-110.196,27.484-110.196-29.61c32.68,0,65.36,0,98.04,0
		c21.563,0,43.127,0,64.69,0c6.462,0,12.925,0,19.387,0C574.401,407.277,571.251,398.95,571.25,390.435z M546.823,261.753
		c20.55,13.87,12.218,40.462,4.782,59.733c-14.902-23.966-37.542-42.802-63.861-53.008
		C504.135,260.561,529.835,250.286,546.823,261.753C558.083,269.353,529.814,250.271,546.823,261.753z M307.513,507.469
		c-17.715-18.168,0.892-56.418,9.445-74.061c10.088,29.003,30.533,53.936,56.941,69.59
		C355.53,513.108,325.024,525.43,307.513,507.469C298.341,498.063,326.014,526.445,307.513,507.469z M382.852,371.518
		c1.082-30.991,29.023-53.891,59.094-53.891c30.071,0,58.012,22.9,59.094,53.891C461.645,371.518,422.249,371.518,382.852,371.518z"
		/>
</g>
</svg>
