<?xml version="1.0" encoding="utf-8"?>
<!-- Generator: Adobe Illustrator 16.0.4, SVG Export Plug-In . SVG Version: 6.00 Build 0)  -->
<!DOCTYPE svg PUBLIC "-//W3C//DTD SVG 1.1//EN" "http://www.w3.org/Graphics/SVG/1.1/DTD/svg11.dtd">
<svg version="1.1" id="Layer_1" xmlns="http://www.w3.org/2000/svg" xmlns:xlink="http://www.w3.org/1999/xlink" x="0px" y="0px"
	 width="443.081px" height="490.174px" viewBox="28.369 -0.5 443.081 490.174" enable-background="new 28.369 -0.5 443.081 490.174"
	 xml:space="preserve">
<path fill="none" stroke="#FFEE00" stroke-miterlimit="10" d="M370.99,7.11c2.07-1.39,4.33-2.45,6.67-3.33
	c2.43,10.88,3.84,21.939,5.75,32.92c-0.17,5.16-2.58,9.85-5.73,13.82c-0.35-0.25-1.039-0.75-1.38-1.01
	c-0.69-9.59-2.37-19.08-4.229-28.51c-12.95,7.4-25.141,17.31-32.17,30.72c-2.61-0.33-5.221-0.65-7.82-0.97
	c1.35-4.54,2.311-9.18,3.33-13.81c1.72-0.65,3.109-1.86,4.25-3.28C348.391,23.01,359.471,14.54,370.99,7.11z"/>
<path fill="none" stroke="#FF00A9" stroke-miterlimit="10" d="M339.9,51.72C346.93,38.31,359.12,28.4,372.07,21
	c1.859,9.43,3.539,18.92,4.229,28.51c-1.399-0.68-2.819-1.3-4.229-1.94c-0.45,2.22-0.87,4.45-1.57,6.6
	C360.23,54.62,350.04,53.14,339.9,51.72z"/>
<path fill="none" stroke="#FF00A9" stroke-miterlimit="10" d="M383.41,36.7c6.72,2.42,12.14,8.19,13.64,15.24
	c2.57,9.62-2.68,19.72-10.399,25.37c-1.03,0.43-2.07,0.83-3.11,1.21c5.01-9.22,2.58-21.65-5.86-28
	C380.83,46.55,383.24,41.86,383.41,36.7z"/>
<path fill="none" stroke="#FFEE00" stroke-miterlimit="10" d="M276.87,42.75c7.91,0.25,15.62,2.75,22.601,6.38
	c-2.301,4.54-4.891,9.05-6.011,14.06c-0.649,2.19,0.33,4.34,1.28,6.27c-7.2,2.36-12.53,8.25-16.64,14.37
	c-3.87-3.45-7.11-7.72-8.26-12.87c4.88-1.69,10.08-1.57,15.16-1.26C279.04,62.17,275.32,52.43,276.87,42.75z"/>
<path fill="none" stroke="#EFA4C6" stroke-miterlimit="10" d="M332.08,50.75c2.6,0.32,5.21,0.64,7.82,0.97
	c10.14,1.42,20.33,2.9,30.6,2.45c-1.13,2.76-2.87,5.18-4.77,7.45c-2.351-2.07-5.121-3.58-8.061-4.64c-0.75,2.73-1.46,5.47-2.49,8.1
	c-9.05,0.04-17.979-1.49-26.939-2.53C329.689,58.68,330.92,54.73,332.08,50.75z"/>
<path fill="none" stroke="#D8ABCF" stroke-miterlimit="10" d="M357.67,56.98c2.939,1.06,5.71,2.57,8.061,4.64
	c3.22,4.16,5.84,9.06,5.84,14.45c0.43,5.4-1.73,10.54-4.641,14.96c-3.709,5.06-9.369,9.14-15.89,9
	c-10.61,0.29-19.21-6.76-28.66-10.43c-14.101-6.1-29.84-5.06-44.85-4.93l0.57-0.84c4.11-6.12,9.44-12.01,16.64-14.37
	c4.789,6.6,13.01,11.05,21.27,9.9c3.41-0.67,5.45-3.83,7.33-6.47c7.53,0.82,15.32,2.18,22.79,0.32c4.229-0.96,7.21-4.39,9.05-8.13
	C356.21,62.45,356.92,59.71,357.67,56.98z"/>
<path fill="none" stroke="#00FFE7" stroke-miterlimit="10" d="M328.24,62.55c8.96,1.04,17.89,2.57,26.939,2.53
	c-1.84,3.74-4.82,7.17-9.05,8.13c-7.47,1.86-15.26,0.5-22.79-0.32C325.279,69.6,326.859,66.11,328.24,62.55z"/>
<path fill="none" stroke="#FF00A9" stroke-miterlimit="10" d="M237.43,99.92c9.32-3.11,18.79-6.22,28.64-7.05
	c3.53-0.34,7.08,0.15,10.45,1.18c-1.16,5.89-1.79,11.96-0.76,17.91c0.37,3.33,1.77,6.43,2.16,9.75c-4.58,1.84-9.76,1.64-14.3-0.21
	C252.88,117.3,244.31,108.96,237.43,99.92z"/>
<path fill="none" stroke="#FF00A9" stroke-miterlimit="10" d="M375,145.99c19.51-12.65,42.04-21.39,65.48-21.99
	c8.729,8.43,17.539,16.96,24.38,27.03c6.18,8.97,7.14,20.52,5.17,30.98c-3.28,17.83-14.19,33.65-28.391,44.64
	c-8.92,6.82-19.22,11.59-29.739,15.35c-12.351,4.391-25.58,6.84-38.7,5.51c-10.921-1.21-21.91-5.28-29.95-12.94
	c-3.21-4.39-7.51-7.88-10.391-12.54c-4.369-6.79-8.649-13.68-12.289-20.89C334.38,179.08,353.3,160.3,375,145.99z"/>
<path fill="none" stroke="#00FFE7" stroke-miterlimit="10" d="M372.07,47.57c1.41,0.64,2.83,1.26,4.229,1.94
	c0.341,0.26,1.03,0.76,1.38,1.01c8.44,6.35,10.87,18.78,5.86,28c-3.511,6.28-9.25,11.53-16.61,12.51
	c2.91-4.42,5.07-9.561,4.641-14.96c0-5.39-2.62-10.29-5.84-14.45c1.899-2.27,3.64-4.69,4.77-7.45
	C371.2,52.02,371.62,49.79,372.07,47.57z"/>
<path fill="none" stroke="#FF00A9" stroke-miterlimit="10" d="M262.27,151.26c6.13-7.08,12.44-15.34,22.13-17.39
	c0.7,1.37,1.37,2.75,2.07,4.13c-14.01,12.6-23.87,29.03-37.58,41.91c-4.07,3.85-9.36,7.3-15.22,6.52
	C243.63,175.06,252.6,162.87,262.27,151.26z"/>
<path fill="none" stroke="#7800FF" stroke-miterlimit="10" d="M286.47,138c1.09,2.19,2.27,4.34,3.39,6.52
	c-3.46,1.39-6.72,3.41-8.95,6.47c-6.29,8.16-10.33,17.72-15.3,26.68c-5.07,9.29-9.37,19.43-17.22,26.78
	c-6.41,5.98-16.35,4.16-23.25,0.03c-0.35,1.3-0.69,2.6-0.99,3.92c-2.15-2.67-4.18-5.46-5.66-8.56c-2.16-6.55-1.91-13.77,1.06-20.03
	c4.26,3.05,8.81,5.92,14.12,6.62c5.86,0.78,11.15-2.67,15.22-6.52C262.6,167.03,272.46,150.6,286.47,138z"/>
<path fill="none" stroke="#FF00A9" stroke-miterlimit="10" d="M406.38,140.45c3.39-2.09,8.62,0.35,8.601,4.52
	c0.5,4.4-5.25,7.54-8.711,4.82C402.93,147.81,403.03,142.37,406.38,140.45z"/>
<path fill="none" stroke="#00FFE7" stroke-miterlimit="10" d="M280.91,150.99c2.23-3.06,5.49-5.08,8.95-6.47
	c0.74,1.42,1.85,3.24,0.26,4.55c-13.32,15.54-18.75,35.68-27.28,53.87c-5.79,12.31-15.04,24.01-28.44,28.29
	c-6.97-5.3-11.09-14.05-10.25-22.83c0.3-1.32,0.64-2.62,0.99-3.92c6.9,4.13,16.84,5.95,23.25-0.03
	c7.85-7.35,12.15-17.49,17.22-26.78C270.58,168.71,274.62,159.15,280.91,150.99z"/>
<path fill="none" stroke="#FF00A9" stroke-miterlimit="10" d="M369.23,163.34c4.49-2.11,9.369,3.53,6.899,7.69
	c-1.7,4.12-8.271,3.97-9.95-0.05C364.63,168.19,366.13,164.24,369.23,163.34z"/>
<path fill="none" stroke="#FF00A9" stroke-miterlimit="10" d="M191.08,215.96c-1.55-7.4-0.05-15.19,3.42-21.83
	c6.03,6.2,15.82,9.58,23.99,5.71c1.48,3.1,3.51,5.89,5.66,8.56c-0.84,8.78,3.28,17.53,10.25,22.83c-8.73,2.58-17.85,3.47-26.88,4.23
	C198.93,232.68,192.71,224.7,191.08,215.96z"/>
<path fill="none" stroke="#7800FF" stroke-miterlimit="10" d="M85.33,276.34c3.39-5.66,10.48-7.27,16.64-6.859
	c6.36,0.279,12.03,3.49,17.27,6.819c-1.33,2.08-2.58,4.21-3.76,6.39c-1.39-0.51-2.77-1.01-4.14-1.539
	C103.81,275.971,94.19,274.85,85.33,276.34z"/>
<path fill="none" stroke="#FF00A9" stroke-miterlimit="10" d="M74.46,283.4c2.63-3.631,6.94-5.26,10.87-7.061
	c8.86-1.49,18.48-0.369,26.01,4.811c-8.68-1.51-19.85,0.609-23.87,9.399c-3.78,9.351-3.28,19.67-4.15,29.54
	c-1.04,11.88-0.52,24.2-4.65,35.55c-3.08,8.73-13.49,11.69-21.87,10.601c1.71,13.529,15.86,23.17,29.1,20.67
	c-5.32,8.43-15.28,12.609-24.87,13.58c-9.2,0.859-18.54-3.021-24.7-9.83c-4.41-4.811-6.8-11.141-7.4-17.58
	c8.34,1.79,18.38,0.54,24.34-6.08c5.94-7.79,7.27-17.85,8.92-27.23c2.1-12.539,3.53-25.189,5.7-37.72
	C69.16,295.6,70.48,288.811,74.46,283.4z"/>
<path fill="none" stroke="#00FFE7" stroke-miterlimit="10" d="M87.47,290.55c4.02-8.79,15.19-10.909,23.87-9.399
	c1.37,0.529,2.75,1.029,4.14,1.539c-2.35,4.351-4.09,9-5.56,13.721c-4.03,1.51-7.86,4.35-9.05,8.68
	c-1.35,5.04-0.6,10.351-0.26,15.48c1.4,11.439,3.42,22.81,5.86,34.08c1.33,7.3,1.51,15.6-3.02,21.899
	c-4.09,5.78-10.94,8.61-17.55,10.36c-13.24,2.5-27.39-7.141-29.1-20.67c8.38,1.09,18.79-1.87,21.87-10.601
	c4.13-11.35,3.61-23.67,4.65-35.55C84.19,310.22,83.69,299.9,87.47,290.55z"/>
<path fill="none" stroke="#FF00A9" stroke-miterlimit="10" d="M421.06,337.62c4.21-3.93,9.03-7.101,14.131-9.76
	c2.119,3.01,5.76,6.38,4.029,10.42c-3.13,8.92-9.22,17.77-18.319,21.27c-5.021,2.01-9.091-2.26-12.74-4.99
	C411.42,348.21,415.82,342.46,421.06,337.62z"/>
<path fill="none" stroke="#7800FF" stroke-miterlimit="10" d="M39.93,343.48c7.42,2.579,16.42,2.029,22.26-3.711
	c-1.65,9.381-2.98,19.44-8.92,27.23C44.92,362.37,39.11,353.2,39.93,343.48z"/>
<path fill="none" stroke="#FFFD00" stroke-miterlimit="10" d="M416.58,310.44c-12.33-9.891-25.07-19.3-38.52-27.61
	c-3.131-1.76-6.34-3.98-10.08-3.85c-7.041,0.22-13.871,2.129-20.83,2.99c-0.271-9-1.01-17.98-2.131-26.921
	c-0.699-6.81-1.93-13.6-1.77-20.48c-3.21-4.39-7.51-7.88-10.391-12.54c-4.369-6.79-8.649-13.68-12.289-20.89
	c13.81-22.06,32.729-40.84,54.43-55.15c19.51-12.65,42.04-21.39,65.48-21.99c-17.08-16.52-35.431-31.67-53.83-46.69
	c-1.03,0.43-2.07,0.83-3.11,1.21c-3.511,6.28-9.25,11.53-16.61,12.51c-3.709,5.06-9.369,9.14-15.89,9
	c-10.61,0.29-19.21-6.76-28.66-10.43c-14.101-6.1-29.84-5.06-44.85-4.93c-0.9,1.11-1.74,2.74-3.45,2.22
	c-5.37-0.52-10.79-1.04-16.16-0.22c-13.61,1.79-26.83,5.86-39.71,10.49c7.87,10.82,17.65,20.43,28.97,27.63
	c7.13,4.38,15.26,7.87,23.79,7.51c3.84-0.05,7.37-1.72,10.89-3.09c0.86,1.54,1.72,3.09,2.54,4.66c0.7,1.37,1.37,2.75,2.07,4.13
	c1.09,2.19,2.27,4.34,3.39,6.52c0.74,1.42,1.85,3.24,0.26,4.55c-13.32,15.54-18.75,35.68-27.28,53.87
	c-5.79,12.31-15.04,24.01-28.44,28.29c-8.73,2.58-17.85,3.47-26.88,4.23c-16.24,2.59-32.89,3.48-48.64,8.53
	c-16.32,5.99-30.15,17.85-39.64,32.31c-1.33,2.08-2.58,4.21-3.76,6.39c-2.35,4.351-4.09,9-5.56,13.721
	c-6.15,26.79-1.99,56.54,14.4,79.04c-11.52,9.76-23.4,19.13-34.28,29.609c-1.94,1.83-3.73,3.811-5.36,5.91
	c7.03,3.771,14.25,7.24,20.96,11.57c3.77,2.54,7.05,5.69,10.27,8.88c11.72-11.24,21.04-24.71,31.38-37.189
	c4.59,1.22,9.02,3.069,13.74,3.779c-2.9,20.95-6.19,41.9-7.34,63.05c-0.34,6.351-0.51,12.811,1,19.051
	c-0.07-0.61-0.22-1.83-0.29-2.44c6.06-2.17,12.26-3.95,18.52-5.45c8.98-1.97,18.14-3.35,27.35-3.25c-0.01,1.391-0.04,2.79-0.08,4.2
	c2.08-12.979,0.14-26.13-0.28-39.16c-0.76-11.899-2.09-23.76-2.85-35.66c19.43-1.58,38.94-3.149,57.98-7.52
	c19.97-4.43,40.59-9.95,56.84-23c16.55,19.479,32.99,39.13,51.29,57.02c2.87,2.87,5.83,5.73,9.391,7.74
	c3.819-9.17,10.26-17.08,17.92-23.33c4.33-3.399,9.14-6.12,14.02-8.64c-2.72-4.82-6.85-8.61-10.859-12.33
	C378.29,374.52,361.87,362,345.45,349.56c-3.94-3.119-8.33-5.689-11.82-9.329c3.66-8.381,6.81-16.971,9.271-25.78
	c7.479-2.931,14.55-6.78,22.039-9.681c11.931,14.48,23.4,29.381,36.211,43.101c2.199,2.37,4.479,4.67,7.01,6.689
	c3.26-6.35,7.66-12.1,12.899-16.939c4.21-3.93,9.03-7.101,14.131-9.76C429.8,321.24,423.1,315.87,416.58,310.44z"/>
<path fill="none" stroke="#FF00A9" stroke-miterlimit="10" d="M390.48,409.26c4.33-3.399,9.14-6.12,14.02-8.64
	c1.33,2.37,2.01,5.14,0.82,7.729c-3.681,10.381-10.631,20.29-20.66,25.311c-3.91,2.14-8.57,1.53-12.1-1.07
	C376.38,423.42,382.82,415.51,390.48,409.26z"/>
<path fill="none" stroke="#00FFE7" stroke-miterlimit="10" d="M397.38,118.25c3.18-2.58,8.3,0.96,7.43,4.82
	c-0.26,3.07-4.02,5.21-6.779,3.77C394.54,125.51,394.08,120.1,397.38,118.25z"/>
<path fill="none" stroke="#00FFE7" stroke-miterlimit="10" d="M333.17,158.27c3.79-2.3,8.859,2.75,6.561,6.55
	c-1.311,2.99-5.66,3.74-7.871,1.31C329.439,163.91,330.189,159.59,333.17,158.27z"/>
<path fill="none" stroke="#FF00A9" stroke-miterlimit="10" d="M81.17,420.89c-1.67-3.81,1.4-7.09,3.51-9.92
	c7.03,3.771,14.25,7.24,20.96,11.57c3.77,2.54,7.05,5.69,10.27,8.88c-3.1,2.771-5.92,5.97-9.65,7.91c-2.71,1.55-5.69-0.21-8.23-1.25
	C90.78,434.44,84,428.69,81.17,420.89z"/>
<path fill="none" stroke="#FF00A9" stroke-miterlimit="10" d="M172.92,472.22c8.98-1.97,18.14-3.35,27.35-3.25
	c-0.01,1.391-0.04,2.79-0.08,4.2c-0.74,4.16-0.61,9.94-5.2,11.87c-9.47,4.36-20.56,5.29-30.65,2.7c-3.89-1.25-8.98-2.96-9.65-7.63
	c-0.07-0.61-0.22-1.83-0.29-2.44C160.46,475.5,166.66,473.72,172.92,472.22z"/>
<path fill="none" stroke="#E988B0" stroke-miterlimit="10" d="M86.168,100.039"/>
<path fill="none" stroke="#E988B0" stroke-miterlimit="10" d="M119.679,100.6c0-0.189-0.022-0.373-0.028-0.561"/>
<path fill="none" stroke="#E988B0" stroke-miterlimit="10" d="M393.107,209.732c0.093,0.164,0.17,0.332,0.27,0.493
	c4.827,7.904,15.148,10.397,23.053,5.569c7.903-4.828,10.396-15.149,5.568-23.053"/>
<path fill="none" stroke="#7800FF" stroke-miterlimit="10" d="M336.189,0h2.32c1.801,12.36-0.859,24.81-3.1,36.94
	c-1.02,4.63-1.98,9.27-3.33,13.81c-1.16,3.98-2.391,7.93-3.84,11.8c-1.381,3.56-2.961,7.05-4.9,10.34c-1.88,2.64-3.92,5.8-7.33,6.47
	c-8.26,1.15-16.48-3.3-21.27-9.9c-0.95-1.93-1.93-4.08-1.28-6.27c1.12-5.01,3.71-9.52,6.011-14.06
	c7.479-13.61,16.18-26.56,25.93-38.65C328.62,6.63,331.891,2.7,336.189,0z"/>
</svg>
