<?xml version="1.0" encoding="utf-8"?>
<!-- Generator: Adobe Illustrator 17.0.0, SVG Export Plug-In . SVG Version: 6.00 Build 0)  -->
<!DOCTYPE svg PUBLIC "-//W3C//DTD SVG 1.0//EN" "http://www.w3.org/TR/2001/REC-SVG-20010904/DTD/svg10.dtd">
<svg version="1.0" id="Layer_1" xmlns="http://www.w3.org/2000/svg" xmlns:xlink="http://www.w3.org/1999/xlink" x="0px" y="0px"
	 width="595.28px" height="841.89px" viewBox="0 0 595.28 841.89" enable-background="new 0 0 595.28 841.89" xml:space="preserve">
<path fill="none" stroke="#FFFFFF" stroke-width="6" stroke-miterlimit="10" d="M382.64,494.667c-52.5,0-90.642-17.513-75.64-80.167
	c3.611-15.081,7.333-51.167,24.333-53.167c5.959-0.701,22.227,19.963,26.667,23.951c12.745,11.447,22.247,8.263,39.708,8.101
	c17.467-0.162,32.958-38.385,44.983-29.805C461.537,377.028,462.533,396.835,467,419C480,483.5,443.521,494.667,382.64,494.667z"/>
<g>
	<path fill="none" stroke="#BE4F9C" stroke-width="6" stroke-miterlimit="10" d="M413,364.5v-30.166
		c0-5.5-3.409-12.938-7.577-16.528l-6.514-5.612c-4.167-3.59-12.077-6.528-17.577-6.528H223.001c-5.5,0-13.427,2.917-17.615,6.483
		l-9.437,8.034c-4.188,3.566-7.615,10.983-7.615,16.483v128.999c0,5.5,3.49,12.842,7.755,16.315l7.824,6.371
		c4.265,3.473,12.255,6.315,17.755,6.315H312"/>
</g>
<g>
	<path fill="none" stroke="#FFFFFF" stroke-width="6" stroke-miterlimit="10" d="M179.121,408.165c0,0-12-6.15-26.667-13.667
		s-29.217-13.667-32.333-13.667s-2.498,6.656,1.375,14.792s12.61,19.798,19.417,25.917c6.806,6.119,18.188,13.338,25.292,16.042
		c7.104,2.704,12.917,4.917,12.917,4.917"/>
</g>
<line fill="none" stroke="#BE4F9C" stroke-width="6" stroke-miterlimit="10" x1="224.75" y1="364" x2="228.25" y2="367.5"/>
<line fill="none" stroke="#BE4F9C" stroke-width="6" stroke-miterlimit="10" x1="250.759" y1="436.999" x2="249.259" y2="442.499"/>
<line fill="none" stroke="#BE4F9C" stroke-width="6" stroke-miterlimit="10" x1="285" y1="345.751" x2="285" y2="351.249"/>
<g>
	<path fill="none" stroke="#FFFFFF" stroke-width="6" stroke-miterlimit="10" d="M348.831,453.5c0,0,1.249,2.179,2.775,4.842
		c1.526,2.663,4.238,5.906,6.026,7.206c1.788,1.3,7.737,2.721,13.22,3.158l12.558,1c5.483,0.437,14.421,0.137,19.863-0.665
		l7.334-1.082c5.441-0.803,12.144-2.841,14.894-4.53c2.75-1.689,6.117-5.026,7.482-7.417c1.365-2.39,2.482-4.346,2.482-4.346"/>
</g>
<g>
	<path fill="none" stroke="#FFFFFF" stroke-width="6" stroke-miterlimit="10" d="M348.831,425c0,0,1.088-1.556,2.418-3.458
		c1.33-1.902,4.293-4.508,6.585-5.792c2.292-1.283,7.017-1.058,10.5,0.5s7.608,4.39,9.167,6.292
		c1.558,1.902,2.833,3.458,2.833,3.458"/>
</g>
<g>
	<path fill="none" stroke="#FFFFFF" stroke-width="6" stroke-miterlimit="10" d="M401.8,425.675c0,0,1.893-2.16,4.206-4.8
		c2.313-2.64,6.054-5.325,8.313-5.967c2.259-0.642,5.934-0.257,8.167,0.854c2.233,1.111,5.512,3.436,7.287,5.167
		c1.775,1.73,3.228,3.146,3.228,3.146"/>
</g>
<path fill="none" stroke="#FFFFFF" stroke-width="6" stroke-miterlimit="10" d="M389.333,506
	c2.814,20.007,15.849,20.299,28.813,19.998c10.627-0.247,9.984-3.909,7.854-23.331"/>
<path fill="none" stroke="#FFFFFF" stroke-width="6" stroke-miterlimit="10" d="M368.667,508c0,14.406,0.475,20.837-16.827,20.46
	c-18.372-0.401-16.506-2.453-22.506-20.46"/>
<path fill="none" stroke="#FFFFFF" stroke-width="6" stroke-miterlimit="10" d="M272,507.333
	c-2.993,6.826-14.071,12.394-20.133,16.127C238,532,225.938,528.456,220,526.051c-12.117-4.907,13.057-18.545,16.667-23.384"/>
<path fill="none" stroke="#FFFFFF" stroke-width="6" stroke-miterlimit="10" d="M211.333,503.333
	c-11.146,3.951-44.89,36.17-50.667,12.434C156.487,498.595,166,494.667,182,486"/>
</svg>
