<?xml version="1.0" encoding="utf-8"?>
<!-- Generator: Adobe Illustrator 17.0.0, SVG Export Plug-In . SVG Version: 6.00 Build 0)  -->
<!DOCTYPE svg PUBLIC "-//W3C//DTD SVG 1.0//EN" "http://www.w3.org/TR/2001/REC-SVG-20010904/DTD/svg10.dtd">
<svg version="1.0" id="Layer_1" xmlns="http://www.w3.org/2000/svg" xmlns:xlink="http://www.w3.org/1999/xlink" x="0px" y="0px"
	 width="595.28px" height="841.89px" viewBox="0 0 595.28 841.89" enable-background="new 0 0 595.28 841.89" xml:space="preserve">
<path fill="none" stroke="#F5851F" stroke-width="3" stroke-linecap="round" stroke-linejoin="round" stroke-miterlimit="10" d="
	M467.103,302.046c-4.322-21.902-20.992-45.878-44.87-48.175c-9.802-0.943-24.149,1.102-27.614,12.125
	c-3.798,12.082,7.391,24.043,11.748,34.38c10.088,23.93,10.892,52.011-12.157,68.62c-19.915,14.351-45.736,24.13-54.704,49.084
	c-17.906-12.256-50.646-18.115-67.196-0.518c0.508-17.507-5.209-37.128-20.056-47.723c0.491,0.21,0.999,0.37,1.525,0.479
	c-24.286-5.392,9.049-54.569-9.548-58.067c-9.687-1.822-21.606,5.552-29.526,10.38c-6.024,3.672-11.35,11.866-19.175,11.594
	c-10.601-0.368-20.285-5.055-30.779-0.887c3.041-0.275,0.213,2.114-0.413,2.628c-3.435,2.82-8.117,2.754-12.138,1.506
	c-12.09-3.753-22.742-10.898-35.901-6.59c-8.516,2.788-5.266,12.678-3.095,18.776c1.502,4.218,4.45,8.045,5.523,12.371
	c0.401,1.617-2.276-0.257,2.485,6.862c1.054,12.749,1.158,26.219-6.748,37.016c-8.254,11.272-4.816,25.527,2.179,36.445
	c14.429,22.522,39.046,32.585,65.034,33.092c-6.608,8.218-3.033,16.875,1.906,24.809c-18.804,3.612-43.618,25.808-27.397,45.309
	c1.604-2.924,3.776-5.335,6.516-7.235c-2.993,3.197-9.406,16.899-4.468,20.347c8.907,6.22,8.511-18.072,13.534-20.347
	c-5.782,5.784-9.201,20.901,1.788,23.159c13.966,2.87,17.374-13.089,17.374-23.587c14.696,11.183,34.45,9.996,51.31,5.242
	c11.94-3.367,30.473-9.296,30.265-24.655c-2.84,7.714,5.315,7.469,9.899,10.381c7.593,4.823,12.452,12.987,15.163,21.38
	c-0.9-2.198-2.027-4.272-3.38-6.224c1.32,2.204,2.439,4.506,3.356,6.906c-10.263-18.471-37.503-26.861-47.535-2.608
	c-7.937,19.189,23.113,34.89,37.77,35.468c37.795,1.49,26.069-57.446,24.229-79.699c2.259,15.505,8.086,34.042,24.081,40.316
	c13.828,5.424,33.285-1.327,36.482-16.991c-0.503,5.488-6.219,11.657-2.879,17.207c3.341,5.551,9.585,8.814,15.553,10.741
	c12.864,4.154,29.346-2.049,33.027-15.871c3.686-13.839-8.461-24.956-18.583-32.106c-3.374-2.383-14.659-11.327-18.871-10.029
	c-5.305,1.634-8.315,7.867-12.506,11.095c12.914-13.745,18.516-30.551,13.268-49.024c-3.528-12.419-10.404-31.771-26.371-31.122
	c3.598-31.118,45.972-31.241,68.6-38.658C459.768,377.857,474.449,336.818,467.103,302.046"/>
<path fill="none" stroke="#F5851F" stroke-width="3" stroke-linecap="round" stroke-linejoin="round" stroke-miterlimit="10" d="
	M148.385,350.114c-3.123,3.027-9.657,15.327-15.414,10.911c-4.389-3.367-6.177-11.716-6.334-16.951
	C134.251,343.228,142.591,344.785,148.385,350.114"/>
<path fill="none" stroke="#FFFFFF" stroke-width="3" stroke-linecap="round" stroke-linejoin="round" stroke-miterlimit="10" d="
	M152.613,428.424c-3.83-3.46-14.303-15.913-2.18-15.299C166.624,413.944,163.842,422.138,152.613,428.424"/>
<path fill="none" stroke="#FFFFFF" stroke-width="3" stroke-linecap="round" stroke-linejoin="round" stroke-miterlimit="10" d="
	M222.7,410.942c0.055,20.656-12.673,38.205-34.628,37.94"/>
<path fill="none" stroke="#F6901E" stroke-width="3" stroke-linecap="round" stroke-linejoin="round" stroke-miterlimit="10" d="
	M188.073,448.882"/>
<path fill="none" stroke="#F6901E" stroke-width="3" stroke-linecap="round" stroke-linejoin="round" stroke-miterlimit="10" d="
	M212.429,408.897"/>
<path fill="none" stroke="#FFFFFF" stroke-width="3" stroke-linecap="round" stroke-linejoin="round" stroke-miterlimit="10" d="
	M212.429,408.897c7.683-8.135,16.06-7.427,17.339,5.077"/>
<path fill="none" stroke="#F5851F" stroke-width="3" stroke-linecap="round" stroke-linejoin="round" stroke-miterlimit="10" d="
	M232.839,349.618c-5.65-5.941-12.451-11.099-20.382-13.524c7.853-5.9,16.096-11.572,25.452-14.815
	C238.645,330.848,238.511,341.402,232.839,349.618"/>
<path fill="none" stroke="#F6901E" stroke-width="3" stroke-linecap="round" stroke-linejoin="round" stroke-miterlimit="10" d="
	M265.139,412.63"/>
<path fill="none" stroke="#F6901E" stroke-width="3" stroke-linecap="round" stroke-linejoin="round" stroke-miterlimit="10" d="
	M198.725,390.084c1.892,13.141-6.288,30.223-21.434,29.44c-16.092-0.831-23.216-19.1-22.038-33.05
	c0.962-11.395,5.066-29.89,20.023-28.758C189.792,358.815,196.974,377.924,198.725,390.084"/>
<path fill="none" stroke="#FFFFFF" stroke-width="3" stroke-linecap="round" stroke-linejoin="round" stroke-miterlimit="10" d="
	M344.966,477.663c-9.547-19.101,11.931-29.838,21.481-10.738C375.997,486.025,354.515,496.762,344.966,477.663"/>
<path fill="none" stroke="#FFFFFF" stroke-width="3" stroke-linecap="round" stroke-linejoin="round" stroke-miterlimit="10" d="
	M426.278,276.075c-7.953-9.531,2.849-18.223,10.714-8.803C444.945,276.804,434.144,285.494,426.278,276.075"/>
<path fill="none" stroke="#FFFFFF" stroke-width="3" stroke-linecap="round" stroke-linejoin="round" stroke-miterlimit="10" d="
	M446.101,280.468c-3.645-4.371,1.264-8.264,4.842-3.976C454.591,280.863,449.678,284.758,446.101,280.468"/>
<path fill="none" stroke="#FFFFFF" stroke-width="3" stroke-linecap="round" stroke-linejoin="round" stroke-miterlimit="10" d="
	M438.367,291.907c-3.643-4.374,1.265-8.264,4.846-3.979C446.859,292.302,441.948,296.188,438.367,291.907"/>
<path fill="none" stroke="#FFFFFF" stroke-width="3" stroke-linecap="round" stroke-linejoin="round" stroke-miterlimit="10" d="
	M338.686,453.548c-11.184,1.85-13.265-10.733-2.081-12.582C347.787,439.118,349.869,451.7,338.686,453.548"/>
<path fill="none" stroke="#FFFFFF" stroke-width="3" stroke-linecap="round" stroke-linejoin="round" stroke-miterlimit="10" d="
	M331.353,465.041c-3.89-4.513,1.13-8.84,5.024-4.335C340.268,465.219,335.248,469.55,331.353,465.041"/>
<path fill="none" stroke="#F5851F" stroke-width="3" stroke-linecap="round" stroke-linejoin="round" stroke-miterlimit="10" d="
	M198.951,390.097c1.918,13.335-6.279,30.534-21.652,29.74c-16.31-0.843-23.455-19.244-22.262-33.384
	c0.933-11.047,5.374-30.328,20.034-29.004C189.56,358.758,197.178,377.793,198.951,390.097"/>
<path fill="none" stroke="#F6901E" stroke-width="3" stroke-linecap="round" stroke-linejoin="round" stroke-miterlimit="10" d="
	M165.421,404.182"/>
<path fill="none" stroke="#FFFFFF" stroke-width="3" stroke-linecap="round" stroke-linejoin="round" stroke-miterlimit="10" d="
	M165.421,404.182c7.813-12.671,20.143-12.757,28.404,0"/>
<path fill="none" stroke="#F6901E" stroke-width="3" stroke-linecap="round" stroke-linejoin="round" stroke-miterlimit="10" d="
	M126.211,404.182"/>
<path fill="none" stroke="#FFFFFF" stroke-width="3" stroke-linecap="round" stroke-linejoin="round" stroke-miterlimit="10" d="
	M126.211,404.182c5.768-12.375,15.655-12.639,21.992,0"/>
<path fill="none" stroke="#F5851F" stroke-width="3" stroke-linecap="round" stroke-linejoin="round" stroke-miterlimit="10" d="
	M224.47,552.262c-11.046,2.084-24.198-0.038-31.401-9.471c-1.118,10.512-0.523,25.64,9.034,32.407
	c6.775,4.797,19.931,10.651,27.658,5.106c5.291-3.797,16.127-11.603,16.824-18.725C247.782,549.329,232.399,550.241,224.47,552.262"
	/>
</svg>
