<?xml version="1.0" encoding="utf-8"?>
<!-- Generator: Adobe Illustrator 17.0.0, SVG Export Plug-In . SVG Version: 6.00 Build 0)  -->
<!DOCTYPE svg PUBLIC "-//W3C//DTD SVG 1.1//EN" "http://www.w3.org/Graphics/SVG/1.1/DTD/svg11.dtd">
<svg version="1.1" id="Layer_1" xmlns="http://www.w3.org/2000/svg" xmlns:xlink="http://www.w3.org/1999/xlink" x="0px" y="0px"
	 width="60.778px" height="115.906px" viewBox="0 0 60.778 115.906" enable-background="new 0 0 60.778 115.906"
	 xml:space="preserve">
<path fill="none" stroke="#00AFFF" stroke-miterlimit="10" d="M115.194,221.156c-56.659,0-112.768,0-169.135,0
	c-0.168-1.957-0.284-3.971-0.523-5.977c-0.241-2.008,0.349-3.534,2.182-4.528c2.247-1.221,2.781-3.102,2.778-5.642
	c-0.08-78.382-0.071-156.766-0.077-235.151c0-1,0-2,0-3.19c-1.673-0.199-3.091-0.366-4.718-0.56c0-6.832,0-13.595,0-20.615
	c1.395-0.304,2.906-0.633,4.724-1.028c0-3.122,0-6.255,0-9.692c2.045-0.216,3.801-0.401,5.934-0.625c0-2.65,0-5.315,0-8.252
	C-22.634-78-1.94-81.841,18.928-85.715c0.349-1.574,0.685-3.091,1.057-4.761c0.935-0.207,1.9-0.423,2.926-0.651
	c0.125-0.276,0.375-0.577,0.381-0.881c0.045-3.065,0.151-6.136,0.028-9.195c-0.071-1.662,0.616-2.761,2.037-3.082
	c2.273-0.514,4.676-1.182,6.914-0.898c4.099,0.52,4.755,1.656,4.744,5.843c-0.006,2.596,0,5.193,0,7.908
	c1.258,0.366,2.307,0.676,3.375,0.989c0.165,0.332,0.403,0.616,0.435,0.926c0.406,3.588,0.392,3.613,3.767,4.247
	c17.944,3.369,35.892,6.715,53.83,10.107c1.75,0.33,3.451,0.915,5.392,1.443c0,2.628,0,5.093,0,7.834
	c2,0.196,3.752,0.366,5.812,0.565c0,3.199,0,6.32,0,9.59c1.886,0.412,3.514,0.767,5.312,1.159c0,6.8,0,13.561,0,20.294
	c-0.224,0.168-0.389,0.395-0.579,0.418c-4.562,0.585-4.565,0.579-4.565,5.38c-0.003,77.703,0.006,155.406-0.06,233.109
	c-0.003,2.38,0.366,4.25,2.63,5.315c2.383,1.125,3.167,2.951,2.869,5.525C115.03,217.233,115.194,219.049,115.194,221.156z
	 M106.354-53.051c-50.944,0-101.53,0-152.162,0c0,5.86,0,11.482,0,17.064c50.825,0,101.434,0,152.162,0
	C106.354-41.745,106.354-47.284,106.354-53.051z M32.054,204.99c0-77.473,0-154.781,0-232.22 M93.418,153.924
	c-15.291,0-30.227,0-45.297,0c0,17.371,0,34.554,0,51.847c15.212,0,30.224,0,45.297,0C93.418,188.395,93.418,171.28,93.418,153.924z
	 M48.175,91.879c0,17.66,0,34.943,0,52.069c15.209,0,30.156,0,45.084,0c0-17.498,0-34.781,0-52.069
	C78.118,91.879,63.259,91.879,48.175,91.879z M48.095,82.098c15.195,0,30.207,0,45.161,0c0-17.493,0-34.772,0-51.984
	c-15.209,0-30.139,0-45.161,0C48.095,47.536,48.095,64.739,48.095,82.098z M12.46,153.924c-15.291,0-30.227,0-45.297,0
	c0,17.371,0,34.554,0,51.847c15.212,0,30.224,0,45.297,0C12.46,188.395,12.46,171.28,12.46,153.924z M-32.783,91.879
	c0,17.66,0,34.943,0,52.069c15.209,0,30.156,0,45.084,0c0-17.498,0-34.781,0-52.069C-2.84,91.879-17.699,91.879-32.783,91.879z
	 M-32.863,82.098c15.195,0,30.207,0,45.161,0c0-17.493,0-34.772,0-51.984c-15.209,0-30.139,0-45.161,0
	C-32.863,47.536-32.863,64.739-32.863,82.098z M0.444-1.956c0,7.465,0,14.754,0,21.981c4.289,0,8.317,0,12.394,0
	c0-7.445,0-14.646,0-21.981C8.608-1.956,4.583-1.956,0.444-1.956z M-3.445-1.942c-4.38,0-8.408,0-12.479,0c0,7.474,0,14.76,0,21.95
	c4.318,0,8.346,0,12.479,0C-3.445,12.625-3.445,5.5-3.445-1.942z M-19.946-1.843c-4.358,0-8.465,0-12.476,0
	c0,7.494,0,14.697,0,21.887c4.295,0,8.32,0,12.476,0C-19.946,12.696-19.946,5.569-19.946-1.843z M93.233-5.101
	c0-7.593,0-14.876,0-22.052c-4.304,0-8.315,0-12.294,0c0,7.505,0,14.717,0,22.052C85.098-5.101,89.035-5.101,93.233-5.101z
	 M64.483-27.309c0,7.531,0,14.732,0,22.049c4.295,0,8.397,0,12.416,0c0-7.496,0-14.703,0-22.049
	C72.721-27.309,68.775-27.309,64.483-27.309z M48.053-27.323c0,7.485,0,14.697,0,22.06c4.284,0,8.394,0,12.465,0
	c0-7.505,0-14.717,0-22.06C56.33-27.323,52.385-27.323,48.053-27.323z M60.668-1.686c-4.448,0-8.562,0-12.692,0
	c0,7.434,0,14.541,0,21.802c4.323,0,8.448,0,12.692,0C60.668,12.77,60.668,5.64,60.668-1.686z M-3.519-5.49
	c0-7.423,0-14.618,0-21.791c-4.295,0-8.394,0-12.539,0c0,7.374,0,14.47,0,21.791C-11.896-5.49-7.874-5.49-3.519-5.49z
	 M12.925-27.275c-4.358,0-8.459,0-12.578,0c0,7.38,0,14.473,0,21.774c4.258,0,8.357,0,12.578,0
	C12.925-12.85,12.925-19.952,12.925-27.275z M64.509-1.604c0,7.352,0,14.53,0,21.825c4.241,0,8.263,0,12.436,0
	c0-7.343,0-14.521,0-21.825C72.732-1.604,68.71-1.604,64.509-1.604z M93.347,20.223c0-7.479,0-14.57,0-21.825
	c-4.19,0-8.204,0-12.425,0c0,7.315,0,14.49,0,21.825C85.109,20.223,89.129,20.223,93.347,20.223z M-32.508-5.601
	c4.306,0,8.334,0,12.473,0c0-7.389,0-14.567,0-21.759c-4.255,0-8.28,0-12.473,0C-32.508-20.068-32.508-12.978-32.508-5.601z"/>
</svg>
